# xmcd CD database file
#
# Track frame offsets:
#	150
#	25891
#	42288
#	64054
#	80502
#	107868
#	127770
#	148865
#	163685
#	187277
#	212060
#
# Disc length: 3092 seconds
#
# Revision: 0
# Processed by: cddbd v1.5.2PL0 Copyright (c) Steve Scherf et al.
# Submitted via: CDex 1.50
#
DISCID=9f0c120b
DTITLE=Zachary Smith and The Dixie Power Trio - Zydeco Dog
DYEAR=2007
DGENRE=Blues
TTITLE0=Sideways Walkin' Dog
TTITLE1=Baby Give Me One More Chance (Just A Couple More Times)
TTITLE2=Zydeco Dog
TTITLE3=Zack's Zydeco Two Step
TTITLE4=Sleepwalk
TTITLE5=Gold Inside Of You
TTITLE6=Bambi And Bootsie Dine In
TTITLE7=Regardez La Femme Charmantez
TTITLE8=Happy Song
TTITLE9=The Swampgrinder
TTITLE10=Save A Chair For Me In Heaven
EXTD=YEAR: 2007
EXTT0=
EXTT1=
EXTT2=
EXTT3=
EXTT4=
EXTT5=
EXTT6=
EXTT7=
EXTT8=
EXTT9=
EXTT10=
PLAYORDER=
